<?xml version="1.0" standalone="no"?>
<!DOCTYPE svg PUBLIC "-//W3C//DTD SVG 20010904//EN"
 "http://www.w3.org/TR/2001/REC-SVG-20010904/DTD/svg10.dtd">
<svg version="1.0" xmlns="http://www.w3.org/2000/svg"
 width="475.000000pt" height="475.000000pt" viewBox="0 0 475.000000 475.000000"
 preserveAspectRatio="xMidYMid meet">

<g transform="translate(0.000000,475.000000) scale(0.100000,-0.100000)"
fill="#000000" stroke="none">
<path d="M1774 4501 c-186 -86 -480 -345 -639 -562 -104 -142 -113 -155 -134
-197 -12 -23 -38 -88 -59 -145 -33 -93 -37 -110 -35 -192 4 -146 50 -332 122
-487 56 -121 116 -168 216 -168 26 0 45 -5 45 -11 0 -6 -18 -32 -41 -57 -52
-59 -123 -200 -149 -294 -47 -175 -45 -255 11 -399 25 -65 42 -90 102 -152 40
-40 87 -82 105 -92 17 -11 32 -22 32 -25 0 -3 -33 -12 -72 -18 -99 -17 -152
-47 -156 -90 -5 -47 39 -117 117 -187 84 -75 169 -119 291 -149 l95 -23 -2
-39 c-1 -21 -5 -75 -9 -119 -11 -141 30 -369 86 -473 108 -203 312 -391 429
-395 48 -2 73 32 100 139 42 172 38 164 122 219 42 28 91 63 109 78 30 26 34
27 54 12 11 -8 31 -20 44 -25 12 -5 22 -12 22 -15 0 -3 -20 -68 -45 -143 -25
-75 -45 -142 -45 -148 0 -27 130 -78 220 -85 39 -4 46 -1 57 21 32 60 75 164
94 224 11 37 23 66 27 66 4 0 48 -13 97 -29 102 -33 109 -31 138 37 47 109 78
198 75 216 -3 23 -49 49 -143 81 -56 19 -60 22 -59 50 1 17 20 82 43 145 31
85 39 120 33 135 -12 26 -191 105 -237 105 -26 0 -35 -5 -43 -27 -6 -16 -22
-57 -35 -93 -14 -36 -30 -85 -37 -110 -19 -76 -32 -102 -47 -96 -8 4 -21 6
-29 6 -9 0 -12 5 -9 11 18 28 -3 285 -26 331 -8 14 3 23 63 55 153 80 308 276
308 390 0 71 -27 102 -99 114 -48 7 -138 -2 -162 -16 -20 -13 -7 22 32 81 86
132 137 311 124 439 -10 107 -23 151 -75 261 -39 81 -63 115 -122 175 -40 41
-92 86 -115 99 -24 13 -43 27 -43 31 0 3 34 12 76 18 199 30 466 200 706 451
117 121 148 160 253 310 174 249 288 496 286 618 -1 120 -101 169 -265 131
-99 -23 -332 -102 -401 -137 -137 -68 -399 -255 -513 -366 -92 -90 -249 -272
-306 -355 -50 -73 -112 -205 -131 -277 -26 -100 -15 -204 26 -245 19 -19 26
-49 10 -49 -4 0 -33 5 -62 11 -169 33 -418 -19 -626 -131 -66 -36 -95 -41 -59
-10 24 19 45 99 52 190 4 64 0 116 -16 210 -35 205 -35 191 -4 235 196 287
340 593 384 816 20 100 7 128 -65 142 -21 5 -48 -2 -91 -22z m120 -23 c17 -23
20 -75 9 -117 -6 -23 -7 -23 -14 -5 -7 18 -8 18 -8 0 -3 -67 -201 -418 -309
-544 -96 -113 -286 -255 -391 -290 -67 -23 -159 -22 -196 2 -21 14 -24 14 -30
-2 -4 -9 -11 -57 -15 -107 l-7 -90 -1 72 c-3 121 55 279 159 440 117 180 232
305 439 474 208 170 325 223 364 167z m1855 -12 c38 -20 61 -58 60 -98 l-1
-33 -7 35 c-12 63 -13 63 -130 58 -92 -5 -122 -11 -226 -48 -193 -68 -291
-122 -521 -287 -238 -170 -500 -467 -619 -703 -10 -19 -24 -39 -30 -45 -7 -5
-18 -27 -25 -48 -17 -53 -23 -40 -9 19 33 143 117 299 231 433 111 130 219
241 267 274 26 17 71 52 101 78 82 70 253 186 334 228 233 119 491 180 575
137z m36 -253 c-14 -43 -33 -89 -41 -103 -10 -15 -13 -17 -8 -5 4 11 21 61 38
111 17 50 32 87 34 82 2 -4 -8 -43 -23 -85z m-99 -228 c-36 -61 -44 -58 -9 4
15 28 29 48 31 46 3 -2 -8 -25 -22 -50z m-66 -105 c-12 -16 -24 -30 -26 -30
-7 0 5 20 24 43 24 27 25 20 2 -13z m-45 -70 c-9 -16 -18 -30 -21 -30 -2 0 2
14 11 30 9 17 18 30 21 30 2 0 -2 -13 -11 -30z m-54 -77 c-6 -10 -22 -31 -36
-48 -20 -23 -19 -18 6 18 32 46 49 63 30 30z m-148 -188 c-37 -41 -70 -75 -72
-75 -5 0 27 38 88 103 71 74 60 55 -16 -28z m-810 -102 c-7 -2 -21 -2 -30 0
-10 3 -4 5 12 5 17 0 24 -2 18 -5z m-113 -12 c-50 -15 -86 -40 -133 -90 -26
-27 -47 -46 -47 -40 0 15 99 106 134 123 17 9 40 15 51 15 16 -1 15 -2 -5 -8z
m195 -11 c38 -25 30 -25 -20 0 -22 11 -33 20 -25 20 8 0 29 -9 45 -20z m14
-43 c25 -16 49 -43 57 -62 16 -40 18 -134 3 -188 -20 -74 -122 -145 -212 -148
-26 -1 -47 -6 -47 -11 0 -4 5 -8 11 -8 27 0 154 -97 211 -161 71 -79 119 -161
148 -257 17 -53 21 -92 21 -191 -1 -111 -4 -133 -32 -214 -66 -193 -111 -246
-281 -334 -119 -61 -218 -131 -218 -154 0 -6 30 15 68 44 37 30 82 62 100 71
l33 17 -8 -28 c-35 -126 49 -286 162 -307 19 -4 35 -11 35 -15 0 -5 -38 -28
-85 -50 -86 -42 -105 -56 -61 -45 21 5 24 1 36 -43 34 -131 20 -359 -28 -461
-45 -95 -163 -207 -284 -269 -35 -17 -37 -22 -58 -118 -38 -168 -54 -195 -117
-195 -57 0 -190 92 -257 178 -82 105 -95 125 -134 200 -69 132 -86 210 -86
402 0 186 13 257 69 373 18 37 29 64 24 61 -13 -8 -74 -132 -83 -167 -5 -20
-11 -27 -24 -23 -9 3 -39 8 -66 12 -68 9 -103 43 -116 114 -18 94 8 177 66
215 25 16 30 15 120 -10 56 -16 102 -24 112 -19 13 5 7 9 -23 14 -79 13 -253
75 -315 113 -51 31 -54 35 -75 107 -29 101 -61 174 -106 241 -40 59 -92 109
-114 109 -21 0 -23 32 -10 121 25 161 84 290 189 405 25 29 46 56 46 62 0 6
-22 9 -49 9 -54 -2 -88 16 -125 67 -17 22 -21 41 -20 96 2 57 7 78 34 125 43
76 89 99 179 92 61 -5 68 -8 104 -47 l39 -41 -4 -79 c-2 -62 -8 -85 -26 -109
-28 -39 -20 -39 27 -3 80 63 321 163 439 183 71 11 262 11 322 -1 25 -4 46 -7
48 -5 2 2 -4 27 -12 56 -30 98 -15 164 50 235 58 62 89 73 200 71 70 -2 86 -6
123 -30z m83 -42 c11 -21 10 -20 -37 35 l-30 35 28 -25 c16 -14 33 -34 39 -45z
m-1761 -169 c11 -43 18 -80 16 -82 -6 -6 -45 144 -51 196 l-6 45 11 -40 c5
-22 19 -75 30 -119z m218 -43 c-48 -44 -69 -80 -86 -153 l-13 -55 5 48 c2 26
12 62 21 80 17 34 92 117 106 117 4 0 -10 -17 -33 -37z m-165 -139 c3 -8 2
-12 -4 -9 -6 3 -10 10 -10 16 0 14 7 11 14 -7z m124 -872 c20 -21 56 -74 79
-118 42 -80 89 -211 79 -221 -8 -9 -84 67 -96 97 -9 21 -9 33 0 50 9 17 7 29
-15 66 -25 43 -48 56 -59 32 -8 -22 -43 27 -50 72 -11 71 7 78 62 22z m31
-131 c25 -34 26 -49 6 -75 -17 -22 -16 -23 -44 27 -17 31 -19 41 -9 57 17 26
23 25 47 -9z m1737 -126 c20 -13 24 -24 24 -69 0 -65 -16 -105 -76 -190 -52
-76 -121 -136 -154 -136 -113 0 -216 128 -197 243 12 70 25 87 90 117 120 57
257 72 313 35z m-1486 -190 c16 -8 36 -15 45 -15 8 0 15 -4 15 -10 0 -5 -5
-10 -10 -10 -18 0 -68 -89 -74 -133 l-7 -44 -57 8 c-132 18 -194 51 -207 110
-9 40 0 62 35 82 64 38 198 44 260 12z m1515 -413 c71 -30 91 -42 93 -59 3
-22 -37 -147 -45 -139 -2 2 5 28 17 57 30 82 30 83 -55 108 -120 36 -122 35
-174 -94 -24 -60 -44 -122 -45 -136 -1 -22 -4 -25 -17 -18 -17 9 -10 37 67
267 22 65 33 66 159 14z m36 -243 c-5 -13 -10 -19 -10 -12 -1 15 10 45 15 40
3 -2 0 -15 -5 -28z m-254 -71 c56 -53 66 -143 23 -213 -38 -61 -131 -83 -205
-48 -42 20 -43 28 -9 74 28 38 63 112 70 146 2 12 9 34 14 49 9 24 14 26 47
21 20 -4 47 -17 60 -29z m301 -79 c78 -18 132 -47 132 -69 0 -20 0 -20 -19 -1
-11 11 -50 29 -86 40 -110 34 -127 54 -27 30z m-221 -61 c-2 -13 -4 -3 -4 22
0 25 2 35 4 23 2 -13 2 -33 0 -45z m-67 -132 c0 -2 -7 -7 -16 -10 -8 -3 -12
-2 -9 4 6 10 25 14 25 6z m346 -90 c-15 -37 -29 -43 -56 -26 -12 8 -11 10 8
10 15 0 29 10 40 29 22 39 27 32 8 -13z m-521 -101 c-19 -72 -32 -136 -30
-144 5 -11 3 -12 -10 -1 -22 18 -19 43 16 150 58 179 71 176 24 -5z m372 109
c-3 -3 -12 -4 -19 -1 -8 3 -5 6 6 6 11 1 17 -2 13 -5z m70 -20 c-3 -3 -12 -4
-19 -1 -8 3 -5 6 6 6 11 1 17 -2 13 -5z m-200 -106 c-3 -8 -6 -5 -6 6 -1 11 2
17 5 13 3 -3 4 -12 1 -19z m-74 -175 c-7 -2 -21 -2 -30 0 -10 3 -4 5 12 5 17
0 24 -2 18 -5z"/>
<path d="M1893 4415 c0 -22 2 -30 4 -17 2 12 2 30 0 40 -3 9 -5 -1 -4 -23z"/>
<path d="M2034 2701 c-68 -29 -112 -173 -84 -270 13 -46 66 -99 106 -107 131
-24 208 240 100 345 -35 34 -86 47 -122 32z m91 -36 c17 -16 25 -35 25 -60 0
-29 -6 -39 -32 -55 -43 -26 -64 -25 -93 5 -34 33 -33 78 1 110 34 32 68 32 99
0z"/>
<path d="M1232 2507 c-84 -87 -90 -272 -10 -313 29 -15 32 -15 57 3 64 48 103
222 66 293 -30 58 -68 63 -113 17z m92 -9 c22 -31 20 -68 -6 -95 -26 -28 -49
-29 -73 -3 -13 14 -16 28 -11 52 13 64 61 88 90 46z"/>
<path d="M2385 2431 c-76 -19 -149 -84 -187 -166 -26 -58 -31 -163 -10 -233
27 -89 124 -162 225 -168 83 -4 145 40 202 141 60 107 56 232 -11 331 -55 82
-133 116 -219 95z m95 -21 c29 -16 14 -40 -25 -40 -42 0 -53 -14 -57 -75 l-3
-49 -56 3 c-64 3 -65 1 -75 -83 -6 -52 -6 -53 21 -60 24 -6 25 -9 12 -19 -9
-7 -29 -29 -46 -50 l-30 -38 -15 52 c-31 104 -10 209 58 286 62 70 160 103
216 73z m15 -74 c34 -15 35 -16 35 -76 0 -55 2 -61 25 -70 26 -10 39 -42 33
-81 -2 -20 -10 -25 -40 -27 -35 -3 -36 -4 -43 -52 -4 -27 -13 -54 -21 -61 -14
-11 -89 -8 -101 5 -3 3 0 33 6 67 7 33 10 63 8 65 -2 3 -28 8 -56 13 -28 4
-54 11 -57 14 -4 3 -3 27 1 53 l7 47 58 -6 c66 -6 70 -1 70 81 0 48 14 53 75
28z m63 -283 c-9 -2 -20 -19 -24 -36 -4 -18 -9 -27 -11 -21 -7 21 16 64 34 63
16 -1 16 -2 1 -6z m51 -20 c-13 -37 -76 -123 -90 -123 -6 0 3 13 19 30 17 16
40 50 52 75 24 50 34 59 19 18z"/>
<path d="M1493 2273 c-14 -5 -18 -23 -5 -23 5 0 17 7 28 15 14 11 15 14 4 14
-8 0 -21 -3 -27 -6z"/>
<path d="M1755 2245 c-83 -40 -265 -95 -312 -95 -27 0 -42 -4 -38 -10 3 -5 20
-10 36 -10 24 0 34 -8 57 -46 74 -126 124 -194 181 -246 56 -52 67 -58 105
-58 69 0 96 46 97 165 1 126 -42 327 -69 324 -4 0 -29 -11 -57 -24z m65 -28
c0 -4 -6 -2 -14 5 -8 7 -12 17 -9 22 5 8 23 -12 23 -27z m-60 -2 c-14 -8 -29
-14 -35 -14 -5 0 1 6 15 14 14 8 30 14 35 14 6 0 -1 -6 -15 -14z m78 -70 c0
-16 -2 -15 -8 5 -11 34 -11 60 0 35 5 -11 8 -29 8 -40z m-281 -1 c-3 -3 -12
-4 -19 -1 -8 3 -5 6 6 6 11 1 17 -2 13 -5z m293 -59 c0 -14 -4 -25 -9 -25 -4
0 -6 11 -3 25 2 14 6 25 8 25 2 0 4 -11 4 -25z m-291 -51 c12 -19 16 -32 11
-29 -11 7 -43 65 -36 65 2 0 13 -16 25 -36z m222 -10 c-46 -40 -86 -97 -97
-139 -6 -25 -7 -25 -25 -9 -23 21 -88 124 -68 107 8 -6 37 -13 66 -14 50 -3
54 -1 102 44 28 26 53 47 57 47 4 0 -12 -16 -35 -36z m85 -113 c-6 -69 -24
-106 -55 -116 -26 -8 -111 29 -111 48 0 65 52 142 119 176 l36 19 9 -31 c4
-18 6 -61 2 -96z"/>
<path d="M2092 1321 c-65 -56 -69 -241 -8 -358 38 -74 129 -143 188 -143 49 0
56 15 8 16 -66 3 -161 84 -199 169 -8 17 -16 75 -18 130 -4 91 -2 104 19 140
24 40 24 40 84 40 51 0 66 -5 98 -28 49 -38 101 -119 121 -190 17 -59 17 -181
1 -222 -4 -11 2 -5 14 13 20 28 21 42 17 115 -2 45 -8 92 -12 105 -12 36 28
28 64 -13 17 -20 31 -31 31 -26 0 18 -54 74 -84 86 -16 7 -45 36 -65 66 -57
84 -100 112 -174 116 -50 3 -66 0 -85 -16z"/>
<path d="M2816 1711 c-3 -5 1 -12 10 -15 8 -3 13 -2 9 3 -3 5 1 12 7 14 8 4 7
6 -4 6 -9 1 -19 -3 -22 -8z"/>
<path d="M2720 1639 c0 -5 -4 -7 -10 -4 -5 3 -10 2 -10 -2 0 -5 -25 -22 -56
-38 -31 -16 -59 -35 -61 -42 -10 -26 40 -64 104 -77 26 -6 32 -4 38 14 4 12 0
30 -9 44 -18 28 -17 65 1 84 13 13 18 32 8 32 -3 0 -5 -5 -5 -11z"/>
<path d="M1414 1655 c9 -9 20 -23 25 -33 8 -14 11 -14 26 -2 15 12 14 15 -17
31 -41 23 -54 24 -34 4z"/>
</g>
</svg>
